<svg width="1024" height="1024" viewBox="0 0 1024 1024" fill="none" xmlns="http://www.w3.org/2000/svg">
  <path fill-rule="evenodd" clip-rule="evenodd" d="M184.32 0C82.5229 0 0 82.5229 0 184.32V839.68C0 941.477 82.5229 1024 184.32 1024H839.68C941.477 1024 1024 941.477 1024 839.68V184.32C1024 82.5229 941.477 0 839.68 0H184.32ZM513.024 204.8L868.184 819.2H726.12L406.476 634.866H619.572L513.024 450.532L406.476 634.866L299.928 819.2H157.865L513.024 204.8ZM157.696 237.568C157.696 219.471 172.367 204.8 190.464 204.8H368.64C386.737 204.8 401.408 219.471 401.408 237.568C401.408 255.665 386.737 270.336 368.64 270.336H190.464C172.367 270.336 157.696 255.665 157.696 237.568ZM657.408 204.8C639.311 204.8 624.64 219.471 624.64 237.568C624.64 255.665 639.311 270.336 657.408 270.336H835.584C853.681 270.336 868.352 255.665 868.352 237.568C868.352 219.471 853.681 204.8 835.584 204.8H657.408ZM157.696 393.216C157.696 375.119 172.367 360.448 190.464 360.448H278.528C296.625 360.448 311.296 375.119 311.296 393.216C311.296 411.313 296.625 425.984 278.528 425.984H190.464C172.367 425.984 157.696 411.313 157.696 393.216ZM747.52 360.448C729.423 360.448 714.752 375.119 714.752 393.216C714.752 411.313 729.423 425.984 747.52 425.984H835.584C853.681 425.984 868.352 411.313 868.352 393.216C868.352 375.119 853.681 360.448 835.584 360.448H747.52ZM157.696 547.139C157.696 529.995 171.595 516.096 188.739 516.096H190.464C208.561 516.096 223.232 530.767 223.232 548.864C223.232 566.961 208.561 581.632 190.464 581.632H188.739C171.595 581.632 157.696 567.733 157.696 550.589V547.139ZM833.859 512C816.715 512 802.816 525.899 802.816 543.043V546.493C802.816 563.637 816.715 577.536 833.859 577.536H835.584C853.681 577.536 868.352 562.865 868.352 544.768C868.352 526.671 853.681 512 835.584 512H833.859Z" fill="#3c3c43"/>
</svg>
